<svg width="50" height="62" viewBox="0 0 50 62" fill="none" xmlns="http://www.w3.org/2000/svg">
<path d="M0 29.5394V0H9.71963C11.7301 0 13.5572 0.36048 15.2009 1.08144C16.8582 1.78905 18.2778 2.79706 19.4596 4.10547C20.6551 5.40053 21.572 6.94926 22.2105 8.75167C22.8489 10.5541 23.1682 12.5434 23.1682 14.7196C23.1682 16.8959 22.8489 18.8919 22.2105 20.7076C21.572 22.5234 20.6551 24.0921 19.4596 25.4139C18.2778 26.7223 16.8582 27.737 15.2009 28.4579C13.5572 29.1789 11.7301 29.5394 9.71963 29.5394H0ZM6.35749 27.6969L3.50477 24.733H8.90457C10.3717 24.733 11.6962 24.3324 12.878 23.5314C14.0734 22.717 15.0175 21.5621 15.7103 20.0668C16.4032 18.5581 16.7496 16.7757 16.7496 14.7196C16.7496 12.6502 16.4032 10.8812 15.7103 9.41255C15.0175 7.93057 14.0734 6.79573 12.878 6.00801C11.6962 5.20694 10.3717 4.80641 8.90457 4.80641H3.50477L6.35749 1.84246V27.6969Z" fill="#008062"/>
<path d="M7.61361 56.3605H21.5683V61.5087H0V57.0654L14.196 35.0841L14.2399 35.1268H0V30H21.7877V34.3792L7.61361 56.3178V56.3605Z" fill="#008062"/>
<rect x="27.5" y="1.5" width="21" height="59" rx="10.5" stroke="#008062" stroke-width="3"/>
<path fill-rule="evenodd" clip-rule="evenodd" d="M45.6485 25.3389C45.8736 25.5557 46 25.8497 46 26.1562C46 26.4628 45.8736 26.7568 45.6485 26.9736L36.6492 35.6387C36.5302 35.7533 36.389 35.8441 36.2336 35.9061C36.0782 35.9681 35.9117 36 35.7435 36C35.5753 36 35.4087 35.9681 35.2533 35.9061C35.0979 35.8441 34.9567 35.7533 34.8378 35.6387L30.3665 31.3343C30.2519 31.2276 30.1604 31.1001 30.0975 30.959C30.0346 30.818 30.0014 30.6663 30 30.5128C29.9987 30.3593 30.029 30.207 30.0894 30.065C30.1498 29.9229 30.2389 29.7938 30.3517 29.6853C30.4644 29.5767 30.5985 29.4909 30.746 29.4327C30.8936 29.3746 31.0517 29.3454 31.2111 29.3467C31.3705 29.348 31.5281 29.3799 31.6745 29.4405C31.821 29.5011 31.9535 29.5892 32.0643 29.6996L35.7431 33.2418L43.9499 25.3389C44.0614 25.2314 44.1938 25.1462 44.3396 25.0881C44.4853 25.0299 44.6415 25 44.7992 25C44.9569 25 45.1131 25.0299 45.2589 25.0881C45.4046 25.1462 45.537 25.2314 45.6485 25.3389Z" fill="#008062"/>
</svg>
